<svg xmlns="http://www.w3.org/2000/svg" viewBox="0 0 61.48 123.59"><defs><style>.cls-1{fill:#fea500;}</style></defs><title>14</title><g id="Слой_2" data-name="Слой 2"><g id="Слой_1-2" data-name="Слой 1"><path class="cls-1" d="M11.42,0h5c1.63,0,2.18.54,2.18,2.18V74.12c0,1.63-.54,2.18-2.18,2.18h-4.8c-1.63,0-2.18-.54-2.18-2.18V22.89c0-.76-.33-1.09-1.09-1.09H1.51c-1.2,0-2-.76-1.2-2.29L9.57,1.09A1.92,1.92,0,0,1,11.42,0Z"/><path class="cls-1" d="M53.71,76.3h-4.8c-1.63,0-2.18-.54-2.18-2.18V52.53c0-.76-.33-1.09-1.09-1.09H29c-1.63,0-2.18-.54-2.18-2.18V46a6,6,0,0,1,.87-3.49l20.05-41A2.61,2.61,0,0,1,50.44,0h3.27c1.63,0,2.18.54,2.18,2.18V41.85c0,.76.22,1.09,1.09,1.09h.54c1.63,0,2.18.54,2.18,2.18v4.14c0,1.63-.55,2.18-2.18,2.18H57c-.76,0-1.09.33-1.09,1.09V74.12C55.89,75.75,55.35,76.3,53.71,76.3ZM37.26,41.85c-.33.65-.11,1.09.55,1.09h7.85c.76,0,1.09-.33,1.09-1.09V24.2c0-.54-.55-.76-.87-.11Z"/><path class="cls-1" d="M6.83,84.39H20.55c.84,0,1.12.28,1.12,1.12v37c0,.84-.28,1.12-1.12,1.12H18.08c-.84,0-1.12-.28-1.12-1.12V89.88c0-1.12,0-1.12-1.12-1.12H11.53c-1.12,0-1.12,0-1.12,1.12v22.51c0,8.46-1.9,11.2-8.29,11.2-.84,0-1.12-.28-1.12-1.12v-2.13c0-.84.28-1.06,1.12-1.12,3.58-.22,3.58-3.3,3.58-6.72v-27C5.71,84.67,6,84.39,6.83,84.39Z"/><path class="cls-1" d="M27.27,122.47v-37c0-.84.28-1.12,1.12-1.12H40.2c.84,0,1.12.28,1.12,1.12v2.13c0,.84-.28,1.12-1.12,1.12H33.09c-1.12,0-1.12,0-1.12,1.12v9.74c0,1.12,0,1.12,1.12,1.12H40.2c.84,0,1.12.28,1.12,1.12V104c0,.84-.28,1.12-1.12,1.12H33.09c-1.12,0-1.12,0-1.12,1.12V118.1c0,1.12,0,1.12,1.12,1.12H40.2c.84,0,1.12.28,1.12,1.12v2.13c0,.84-.28,1.12-1.12,1.12H28.39C27.55,123.59,27.27,123.31,27.27,122.47Z"/><path class="cls-1" d="M45.8,84.39H60.36c.84,0,1.12.28,1.12,1.12v2.13c0,.84-.28,1.12-1.12,1.12H56.55c-1.12,0-1.12,0-1.12,1.12v32.59c0,.84-.28,1.12-1.12,1.12H51.85c-.84,0-1.12-.28-1.12-1.12V89.88c0-1.12,0-1.12-1.06-1.12H45.8c-.84,0-1.12-.28-1.12-1.12V85.51C44.68,84.67,45,84.39,45.8,84.39Z"/></g></g></svg>