<?xml version="1.0" encoding="utf-8"?>
<!-- Generator: Adobe Illustrator 21.1.0, SVG Export Plug-In . SVG Version: 6.00 Build 0)  -->
<svg version="1.1" id="Слой_1" xmlns="http://www.w3.org/2000/svg" xmlns:xlink="http://www.w3.org/1999/xlink" x="0px" y="0px"
	 viewBox="0 0 61.5 123.6" style="enable-background:new 0 0 61.5 123.6;" xml:space="preserve">
<style type="text/css">
	.st0{fill:#67D4FB;}
</style>
<title>14</title>
<g id="Слой_2">
	<g id="Слой_1-2">
		<path class="st0" d="M11.4,0h5c1.6,0,2.2,0.5,2.2,2.2v71.9c0,1.6-0.5,2.2-2.2,2.2h-4.8c-1.6,0-2.2-0.5-2.2-2.2V22.9
			c0-0.8-0.3-1.1-1.1-1.1H1.5c-1.2,0-2-0.8-1.2-2.3L9.6,1.1C9.9,0.4,10.6,0,11.4,0z"/>
		<path class="st0" d="M53.7,76.3h-4.8c-1.6,0-2.2-0.5-2.2-2.2V52.5c0-0.8-0.3-1.1-1.1-1.1H29c-1.6,0-2.2-0.5-2.2-2.2V46
			c-0.1-1.2,0.2-2.4,0.9-3.5l20-41c0.5-1,1.6-1.7,2.7-1.5h3.3c1.6,0,2.2,0.5,2.2,2.2v39.7c0,0.8,0.2,1.1,1.1,1.1h0.5
			c1.6,0,2.2,0.5,2.2,2.2v4.1c0,1.6-0.5,2.2-2.2,2.2H57c-0.8,0-1.1,0.3-1.1,1.1v21.6C55.9,75.8,55.3,76.3,53.7,76.3z M37.3,41.8
			c-0.3,0.7-0.1,1.1,0.5,1.1h7.8c0.8,0,1.1-0.3,1.1-1.1V24.2c0-0.5-0.5-0.8-0.9-0.1L37.3,41.8z"/>
		<path class="st0" d="M6.8,84.4h13.7c0.8,0,1.1,0.3,1.1,1.1v37c0,0.8-0.3,1.1-1.1,1.1h-2.5c-0.8,0-1.1-0.3-1.1-1.1V89.9
			c0-1.1,0-1.1-1.1-1.1h-4.3c-1.1,0-1.1,0-1.1,1.1v22.5c0,8.5-1.9,11.2-8.3,11.2c-0.8,0-1.1-0.3-1.1-1.1v-2.1c0-0.8,0.3-1.1,1.1-1.1
			c3.6-0.2,3.6-3.3,3.6-6.7v-27C5.7,84.7,6,84.4,6.8,84.4z"/>
		<path class="st0" d="M27.3,122.5v-37c0-0.8,0.3-1.1,1.1-1.1h11.8c0.8,0,1.1,0.3,1.1,1.1v2.1c0,0.8-0.3,1.1-1.1,1.1h-7.1
			c-1.1,0-1.1,0-1.1,1.1v9.7c0,1.1,0,1.1,1.1,1.1h7.1c0.8,0,1.1,0.3,1.1,1.1v2.2c0,0.8-0.3,1.1-1.1,1.1h-7.1c-1.1,0-1.1,0-1.1,1.1
			v11.9c0,1.1,0,1.1,1.1,1.1h7.1c0.8,0,1.1,0.3,1.1,1.1v2.1c0,0.8-0.3,1.1-1.1,1.1H28.4C27.5,123.6,27.3,123.3,27.3,122.5z"/>
		<path class="st0" d="M45.8,84.4h14.6c0.8,0,1.1,0.3,1.1,1.1v2.1c0,0.8-0.3,1.1-1.1,1.1h-3.8c-1.1,0-1.1,0-1.1,1.1v32.6
			c0,0.8-0.3,1.1-1.1,1.1h-2.5c-0.8,0-1.1-0.3-1.1-1.1V89.9c0-1.1,0-1.1-1.1-1.1h-3.9c-0.8,0-1.1-0.3-1.1-1.1v-2.1
			C44.7,84.7,45,84.4,45.8,84.4z"/>
	</g>
</g>
</svg>
