<svg xmlns="http://www.w3.org/2000/svg" xmlns:xlink="http://www.w3.org/1999/xlink" width="37.93" height="21.78" viewBox="0 0 37.93 21.78">
  <metadata><?xpacket begin="﻿" id="W5M0MpCehiHzreSzNTczkc9d"?>
<x:xmpmeta xmlns:x="adobe:ns:meta/" x:xmptk="Adobe XMP Core 5.6-c138 79.159824, 2016/09/14-01:09:01        ">
   <rdf:RDF xmlns:rdf="http://www.w3.org/1999/02/22-rdf-syntax-ns#">
      <rdf:Description rdf:about=""/>
   </rdf:RDF>
</x:xmpmeta>
                                                                                                    
                                                                                                    
                                                                                                    
                                                                                                    
                                                                                                    
                                                                                                    
                                                                                                    
                                                                                                    
                                                                                                    
                                                                                                    
                                                                                                    
                                                                                                    
                                                                                                    
                                                                                                    
                                                                                                    
                                                                                                    
                                                                                                    
                                                                                                    
                                                                                                    
                                                                                                    
                           
<?xpacket end="w"?></metadata>
<defs>
    <style>
      .cls-1 {
        fill: #fff;
        fill-rule: evenodd;
        opacity: 0.8;
        filter: url(#filter);
      }
    </style>
    <filter id="filter" x="1063.16" y="4519.03" width="37.93" height="21.78" filterUnits="userSpaceOnUse">
      <feFlood result="flood" flood-color="#fff"/>
      <feComposite result="composite" operator="in" in2="SourceGraphic"/>
      <feBlend result="blend" in2="SourceGraphic"/>
    </filter>
  </defs>
  <path id="Фигура_1" data-name="Фигура 1" class="cls-1" d="M1081.7,4540.7h2.27a1.936,1.936,0,0,0,1.04-.46,1.683,1.683,0,0,0,.31-1s-0.05-3.06,1.37-3.51c1.39-.45,3.18,2.96,5.07,4.27a3.62,3.62,0,0,0,2.52.77l5.07-.07s2.65-.17,1.39-2.26c-0.1-.18-0.73-1.55-3.76-4.39-3.18-2.96-2.76-2.48,1.07-7.62,2.33-3.12,3.26-5.03,2.97-5.84-0.27-.78-1.99-0.58-1.99-0.58l-5.7.04a1.28,1.28,0,0,0-.74.13,1.511,1.511,0,0,0-.5.61,34.286,34.286,0,0,1-2.11,4.48c-2.54,4.34-3.56,4.57-3.97,4.3-0.97-.63-0.73-2.52-0.73-3.87,0-4.21.64-5.96-1.23-6.41a9.844,9.844,0,0,0-2.66-.27,12.292,12.292,0,0,0-4.74.49c-0.65.32-1.15,1.03-.84,1.07a2.55,2.55,0,0,1,1.68.85,5.536,5.536,0,0,1,.57,2.6s0.33,4.95-.79,5.56c-0.77.43-1.82-.44-4.09-4.37a36.29,36.29,0,0,1-2.03-4.25,1.78,1.78,0,0,0-.47-0.64,2.323,2.323,0,0,0-.88-0.35l-5.42.03a1.866,1.866,0,0,0-1.11.38,1.185,1.185,0,0,0-.03.97s4.25,9.99,9.05,15.02A12.985,12.985,0,0,0,1081.7,4540.7Z" transform="translate(-1063.16 -4519.03)"/>
</svg>
