<?xml version="1.0" encoding="utf-8"?>
<!-- Generator: Adobe Illustrator 21.1.0, SVG Export Plug-In . SVG Version: 6.00 Build 0)  -->
<svg version="1.1" id="Слой_1" xmlns="http://www.w3.org/2000/svg" xmlns:xlink="http://www.w3.org/1999/xlink" x="0px" y="0px"
	 viewBox="0 0 238.3 70.4" style="enable-background:new 0 0 238.3 70.4;" xml:space="preserve">
<style type="text/css">
	.st0{fill:#777777;}
</style>
<title>old-var-2</title>
<g id="Слой_2">
	<g id="Слой_1-2">
		<path class="st0" d="M88.1,43.3H65.8c-1.6,0-1.7-0.1-1.7-1.7c0-2.1,0-4.3,0-6.4c0-1.4,0.2-1.5,1.6-1.5h33.1c1.6,0,1.7,0.1,1.7,1.7
			c0,7.7,0,15.3,0,23c0.1,0.9-0.4,1.7-1.2,2.1c-7.8,5-16.6,8.3-25.8,9.5c-11.9,1.4-23.3,0.1-34-5.7c-4.4-2.3-8.1-5.7-10.9-9.8
			c-0.3-0.5-0.8-0.7-1.3-0.7c-1.6,0-3.1,0-4.8,0v-2.6h-5.1V40.9h-0.3v7.6h-4.7v-9.7H7.3l-0.2-1.2H0v-4.3c1.9,0,3.8,0,5.8,0
			c1,0,1.7-0.1,1.4-1.5h5.3v-9.3h4.8v7.6h0.3V19.8h5.1c0-0.6,0-1.2,0-1.8c-0.1-0.8,0.2-1.1,1-1.1c1.4,0,2.7,0,4.1,0
			c0.3,0,0.7-0.1,0.9-0.4c4.7-7.5,11.6-12,20-14.3c10.6-3,21.7-3,32.3,0.1c9,2.6,15.2,8.3,18.1,17.3c0.5,1.5,0.3,1.8-1.2,2.1
			c-2.8,0.6-5.7,1.2-8.5,1.9c-1,0.3-1.5-0.1-1.8-1.1c-1.3-3.4-3-6.5-5.9-8.6c-2.8-2-5.9-3.2-9.3-3.8c-7.4-1.3-14.7-1-21.7,1.8
			c-8.1,3.3-12.5,9.6-14,18c-1,5.3-0.5,10.8,1.4,15.8c2.4,6.2,7,10.1,13.1,12.3c10.4,3.8,20.7,3.2,30.9-0.9c1.8-0.7,3.6-1.7,5.4-2.6
			c0.3-0.2,0.6-0.5,0.7-0.8C88.1,50.3,88.1,46.9,88.1,43.3z"/>
		<path class="st0" d="M231.1,31.8c-0.3,1.4,0.4,1.6,1.4,1.6c1.9-0.1,3.8,0,5.8,0v4.2h-7.1l-0.2,1.2h-5.2v9.7h-4.6
			c-0.5-2.5-0.1-5.1-0.4-7.6V51h-5.1v2.5h-5.6l-0.3-15h-18.4v6.6h11.2V49h-11.3v10h-5.8V34.6h24.3c0-0.5,0-0.8,0-1.2
			c0-3.9,0-7.9,0-11.8c0-1.3,0.1-2.7,0.3-4c0.1-0.3,0.4-0.6,0.8-0.7c1.2-0.1,2.4,0,3.6,0c0.8,0,1.2,0.3,1.1,1.1c0,0.6,0,1.1,0,1.7
			h5.1v10.3h0.3v-7.6h4.7v9.3L231.1,31.8z"/>
		<path class="st0" d="M120.4,47.3c1,0.9,1.8,1.9,2.6,3c1.7,2.7,3.2,5.4,4.8,8.1c0.1,0.1,0.1,0.3,0.3,0.6c-2.2,0-4.3,0-6.3,0
			c-0.3,0-0.6-0.4-0.8-0.7c-1.2-2.2-2.4-4.4-3.6-6.6s-2.8-3-5.4-2.6V59h-5.7V34.8c0.1,0,0.2-0.1,0.2-0.1c4.3,0.1,8.6,0.2,12.9,0.3
			c0.6,0.1,1.3,0.2,1.9,0.4c3.3,0.9,4.8,3,4.8,6.3c-0.1,2.7-1.9,4.7-5,5.5L120.4,47.3z M112,38.4v7.2c2-0.2,3.9-0.5,5.8-0.9
			c1.6-0.5,2.4-2.3,1.8-3.8c-0.4-1-1.3-1.8-2.3-2C115.7,38.6,113.9,38.5,112,38.4z"/>
		<path class="st0" d="M145.3,38.4v16.8h6.6v3.7h-19v-3.7h6.5V38.4h-6.5v-3.8h19v3.7H145.3z"/>
		<path class="st0" d="M159.6,34.6h17.7v3.8h-11.9v6.7h11.3V49h-11.3v9.9h-5.8L159.6,34.6z"/>
		<path class="st0" d="M114.7,24.8c0.2,1.6-0.9,3-2.5,3.2c-0.3,0.1-0.4,0.4-0.7,0.5c-0.6,0.1-1.2,0.1-1.9,0.1
			c-0.3,0-0.6-0.5-0.9-0.5c-1.6-0.4-2.3-1.2-2.4-2.6c-0.1-2.1,0.4-3.1,2-3.7c0.5-0.2,1.2-0.1,1.4-0.9c0.5-0.1,1.1-0.1,1.6,0
			c0.1,0.8,0.8,0.6,1.2,0.8C114.1,22.3,114.7,23.1,114.7,24.8z M109.6,22.9c-1.3,0.5-1.3,1.4-1.2,2.4c0.1,0.8,0.3,1.4,1.2,1.5V22.9z
			 M111.6,26.8c1.1-0.3,1.2-1.2,1.2-2s-0.2-1.5-1.2-1.8V26.8z"/>
		<path class="st0" d="M115.7,21h1.9v4.4l0.2,0.1c0.8-1.1,1.7-2.1,2.4-3.3c0.5-1.1,1.7-1.6,2.8-1.1v7.6h-1.9v-4.3l-0.2-0.1l-2.4,3.3
			c-1,1.4-1,1.4-2.8,1.1V21z"/>
		<path class="st0" d="M135.3,24h3.4v-3h2v7.6h-2v-3.2h-3.3v3.2h-2.1v-7.6h2L135.3,24z"/>
		<path class="st0" d="M195.4,21h6.4v1.1h-4.4V24c0.9,0.1,1.8,0.1,2.7,0.2c0.5,0.1,1,0.2,1.5,0.5c0.9,0.5,1.3,1.6,0.8,2.6
			c-0.2,0.4-0.5,0.7-0.8,0.8c-0.6,0.3-1.3,0.5-2,0.6c-0.4,0-0.7,0-1.1,0h-3.1V21z M197.3,27.6c0.7,0,1.5-0.1,2.2-0.3
			c0.4-0.2,0.7-0.6,0.9-1c0-0.3-0.5-0.8-0.9-0.9c-0.7-0.1-1.5-0.2-2.2-0.2L197.3,27.6z"/>
		<path class="st0" d="M184.6,28.7h-1.9v-6.3h-1.8c-0.2,1.3-0.3,2.6-0.6,4c-0.5,2.1-1.4,2.7-3.6,2.3l0.1-1.2c1.2-0.1,1.6-1,1.8-2
			c0.2-1.4,0.4-2.9,0.6-4.4h5.4V28.7z"/>
		<path class="st0" d="M170.8,25.3v3.3h-1.9v-7.6h1.9v3l0.2,0.1c0.6-0.6,1.2-1.3,1.7-2c0.9-1.3,2-1.4,3.4-1.1l-3.4,3.6l3.4,3.8
			c-1.1,0.6-2.5,0.3-3.3-0.8l-1.9-2.2C171,25.4,170.9,25.4,170.8,25.3z"/>
		<path class="st0" d="M144.9,25.3v2.1h4.1l0.1,1.2h-6.1V21h6.1v1.2h-4.1v1.9h3.9l0.1,1.2L144.9,25.3z"/>
		<path class="st0" d="M186.6,28.7l0.1-0.9c0.8-0.2,1.5-0.5,2.2-0.8c0.5-0.3,0.6-0.8,0.1-1.4c-1.1-1.4-2.1-2.9-3.1-4.4
			c1.5-0.4,2.7-0.2,3.3,1.3c0.4,0.7,0.8,1.4,1.2,2l0.9-1.9c0.8-1.7,0.8-1.7,2.9-1.5l-2.3,4.2c-0.3,0.5-0.6,1.1-0.9,1.6
			C189.9,28.8,188.8,29.2,186.6,28.7z"/>
		<path class="st0" d="M158,22.5c-1.6-0.2-3.3-0.9-4.5,0.7c-0.6,1-0.6,2.3,0,3.3c1.3,1.6,3,0.9,4.5,0.6c0.4,1,0.1,1.5-1,1.6
			c-1,0.1-1.9,0.1-2.9,0c-1.9-0.1-3.4-1.7-3.3-3.6c0,0,0,0,0,0c-0.2-2.1,1.3-3.9,3.4-4.1c0.9-0.1,1.8-0.1,2.7,0
			C158.2,21,158.2,21.1,158,22.5z"/>
		<path class="st0" d="M127.2,22.2h-2.8l-0.1-1.2h7.6v1.2h-2.7v6.4h-2V22.2z"/>
		<path class="st0" d="M161,26.1v-1.2h4.9l0.1,1.2L161,26.1z"/>
	</g>
</g>
</svg>
