<svg xmlns="http://www.w3.org/2000/svg" viewBox="0 0 191.51 138.56"><defs><style>.cls-1{fill:#666;}</style></defs><title>logo-grey</title><g id="Слой_2" data-name="Слой 2"><g id="Слой_1-2" data-name="Слой 1"><path class="cls-1" d="M52.65,138.56v-3.17l15.83-7.92v-8.71q-21.58-.6-36.91-6.63T8.11,95.61A38.66,38.66,0,0,1,0,71.26,42.91,42.91,0,0,1,8.11,45.92q8.11-11.48,23.46-18.51T68.49,19.8V11.09L52.65,3.17V0h49.48V3.17L86.3,11.09V19.8q33.65.79,50.77,13.76T154.19,67.3a44.39,44.39,0,0,1-7.62,25.24q-7.62,11.38-22.66,18.41T86.3,118.77v8.71l15.84,7.92v3.17ZM68.49,29.49q-24.74,0-37,10T19.2,64.73q0,19.4,13,30.88t36.32,13.06ZM135,73.44Q135,54,122.92,42.66t-36.62-13v79.18q17.82,0,28.5-4.65t15.44-12.57A34.7,34.7,0,0,0,135,73.44Z"/><path class="cls-1" d="M90,138.56v-3.17l15.84-7.92v-8.71q-21.58-.6-36.92-6.63T45.43,95.61a38.66,38.66,0,0,1-8.11-24.35,42.91,42.91,0,0,1,8.11-25.34q8.11-11.48,23.45-18.51t36.92-7.62V11.09L90,3.17V0h49.48V3.17l-15.83,7.92v8.71q33.65.79,50.77,13.76T191.51,67.3a44.39,44.39,0,0,1-7.62,25.24q-7.62,11.38-22.66,18.41t-37.61,7.82v8.71l15.83,7.92v3.17ZM105.8,29.49q-24.75,0-37,10T56.51,64.73q0,19.4,13,30.88t36.32,13.06Zm66.51,43.94q0-19.39-12.08-30.78t-36.62-13v79.18q17.82,0,28.51-4.65t15.44-12.57A34.69,34.69,0,0,0,172.31,73.44Z"/></g></g></svg>