<svg xmlns="http://www.w3.org/2000/svg" viewBox="0 0 238.29 70.39"><defs><style>.cls-1{fill:blue;}</style></defs><title>old-var-2</title><g id="Слой_2" data-name="Слой 2"><g id="Слой_1-2" data-name="Слой 1"><path class="cls-1" d="M88.1,43.34H65.82c-1.55,0-1.69-.14-1.7-1.73q0-3.22,0-6.44c0-1.36.18-1.53,1.57-1.54H98.78c1.59,0,1.72.13,1.72,1.72,0,7.66,0,15.32,0,23a2.13,2.13,0,0,1-1.15,2.07,62.28,62.28,0,0,1-25.75,9.45c-11.87,1.45-23.33.06-34-5.7a29.84,29.84,0,0,1-10.85-9.85,1.29,1.29,0,0,0-1.29-.66c-1.57,0-3.13,0-4.81,0V51.11H17.53V40.91h-.28v7.61H12.53V38.84H7.33L7.1,37.63H0V33.35c1.92,0,3.84-.05,5.75,0,1,0,1.7-.14,1.42-1.48h5.27V22.53H17.2v7.58h.33V19.76h5.09a15.66,15.66,0,0,0,0-1.75c-.09-.79.24-1.14,1-1.14,1.36,0,2.72,0,4.08,0a1.26,1.26,0,0,0,.92-.36c4.7-7.53,11.62-12,20-14.27a58.35,58.35,0,0,1,32.27.08c9,2.63,15.2,8.25,18.12,17.28.48,1.49.33,1.8-1.21,2.14-2.82.64-5.66,1.23-8.47,1.91-1,.25-1.49-.15-1.84-1.07-1.28-3.35-3-6.46-5.93-8.62a22.1,22.1,0,0,0-9.25-3.79c-7.38-1.3-14.67-1-21.71,1.82-8.12,3.29-12.48,9.6-13.95,18A29.12,29.12,0,0,0,38.1,45.83c2.4,6.16,7,10.08,13.07,12.31,10.4,3.8,20.7,3.19,30.87-.89,1.85-.74,3.61-1.71,5.39-2.63a1.26,1.26,0,0,0,.65-.85C88.12,50.34,88.1,46.91,88.1,43.34Z"/><path class="cls-1" d="M231.12,31.81c-.3,1.44.38,1.59,1.42,1.55,1.89-.07,3.78,0,5.75,0v4.22h-7.1L231,38.78h-5.21v9.73h-4.61c-.47-2.52-.06-5.09-.37-7.62V51h-5.13v2.54H210.1l-.33-15H191.4v6.61h11.23v3.87H191.33V59h-5.8V34.64h24.29c0-.45,0-.83,0-1.21,0-3.94,0-7.87,0-11.81a35.75,35.75,0,0,1,.28-4,1.1,1.1,0,0,1,.81-.67c1.21-.08,2.43,0,3.65,0,.76,0,1.22.26,1.09,1.15a13.22,13.22,0,0,0,0,1.71h5.09V30.1H221V22.5h4.73v9.32Z"/><path class="cls-1" d="M120.42,47.34a25.21,25.21,0,0,1,2.64,3c1.7,2.65,3.24,5.39,4.84,8.1.08.14.14.31.26.59-2.19,0-4.26,0-6.32,0-.27,0-.61-.43-.78-.73-1.22-2.18-2.39-4.39-3.6-6.58s-2.76-3-5.42-2.58V59h-5.72V34.75c.09-.05.15-.12.2-.12,4.29.1,8.57.2,12.86.34a8.11,8.11,0,0,1,1.88.41c3.31.93,4.85,3,4.79,6.32-.06,2.71-1.89,4.72-5,5.5ZM112,38.39v7.15a51.62,51.62,0,0,0,5.85-.87,3,3,0,0,0-.48-5.79C115.68,38.6,113.93,38.55,112,38.39Z"/><path class="cls-1" d="M145.28,38.4V55.22h6.58v3.72h-19V55.28h6.48V38.44h-6.47V34.66h19V38.4Z"/><path class="cls-1" d="M159.56,34.64h17.71v3.85H165.38v6.71h11.26V49H165.38v9.89h-5.83Z"/><path class="cls-1" d="M114.65,24.84a2.92,2.92,0,0,1-2.47,3.24c-.25.08-.43.43-.68.47a7.32,7.32,0,0,1-1.87.08c-.3,0-.55-.46-.86-.54-1.56-.37-2.32-1.16-2.42-2.58-.14-2.07.44-3.09,2-3.67.51-.19,1.22-.08,1.4-.92a4,4,0,0,1,1.6,0c.13.8.77.65,1.22.8C114.09,22.25,114.65,23.06,114.65,24.84Zm-5.09-1.94c-1.3.48-1.33,1.41-1.24,2.4.07.75.31,1.35,1.24,1.45Zm2,3.86c1.09-.32,1.17-1.17,1.16-2s-.15-1.55-1.16-1.83Z"/><path class="cls-1" d="M115.71,21h1.88v4.38l.24.11c.8-1.09,1.68-2.13,2.36-3.29a2.19,2.19,0,0,1,2.8-1.14v7.58h-1.91V24.34l-.24-.11-2.38,3.27c-1,1.36-1,1.36-2.75,1.14Z"/><path class="cls-1" d="M135.29,24h3.37V21h2v7.6h-2V25.43h-3.32v3.22h-2.06V21.07h2Z"/><path class="cls-1" d="M195.42,21h6.41v1.13h-4.45V24c.91.07,1.8.1,2.67.23a4.75,4.75,0,0,1,1.52.49,1.9,1.9,0,0,1,0,3.39,8,8,0,0,1-2,.61,4.91,4.91,0,0,1-1.07,0h-3.08Zm1.9,6.57a10.42,10.42,0,0,0,2.18-.27,1.52,1.52,0,0,0,.87-1c0-.26-.49-.79-.85-.88a11.92,11.92,0,0,0-2.19-.17Z"/><path class="cls-1" d="M184.56,28.68h-1.85V22.37h-1.76c-.2,1.3-.34,2.65-.63,4-.47,2.12-1.4,2.68-3.61,2.33l.1-1.19c1.24-.09,1.59-1,1.75-2,.23-1.44.37-2.89.55-4.42h5.45Z"/><path class="cls-1" d="M170.84,25.33v3.34h-1.94v-7.6h1.91v3l.24.09a19.8,19.8,0,0,0,1.7-2c.85-1.28,2-1.37,3.43-1.08l-3.38,3.61,3.45,3.8a2.51,2.51,0,0,1-3.27-.78l-1.85-2.22A2.38,2.38,0,0,0,170.84,25.33Z"/><path class="cls-1" d="M144.89,25.32v2.15H149l.06,1.19h-6.12V21H149v1.23h-4.09v1.87h3.94l.1,1.17Z"/><path class="cls-1" d="M186.55,28.66l.06-.94a12.5,12.5,0,0,0,2.22-.79c.54-.32.57-.84.12-1.44-1.07-1.4-2.06-2.88-3.11-4.37,1.54-.4,2.67-.19,3.32,1.31a16.31,16.31,0,0,0,1.24,2l.95-1.89c.83-1.67.83-1.67,2.88-1.47l-2.32,4.23c-.29.53-.58,1.06-.88,1.59C189.94,28.78,188.81,29.24,186.55,28.66Z"/><path class="cls-1" d="M158,22.54c-1.62-.22-3.28-.89-4.52.69a3,3,0,0,0,0,3.25c1.28,1.58,3,.91,4.54.64.37,1,.05,1.55-1,1.59a16.88,16.88,0,0,1-2.86,0,3.46,3.46,0,0,1-3.34-3.62,3.8,3.8,0,0,1,3.4-4.1,14.72,14.72,0,0,1,2.67-.05C158.16,21,158.17,21.07,158,22.54Z"/><path class="cls-1" d="M127.22,22.24h-2.82l-.07-1.18h7.58v1.16h-2.69v6.42h-2Z"/><path class="cls-1" d="M161,26.1V24.92h4.86l.06,1.19Z"/></g></g></svg>