<svg xmlns="http://www.w3.org/2000/svg" viewBox="0 0 178.96 65.67"><defs><style>.cls-1{fill:#fea500;}</style></defs><title>s-logo-and-desc</title><g id="Слой_2" data-name="Слой 2"><g id="Слой_1-2" data-name="Слой 1"><path class="cls-1" d="M0,49V48l4.64-2.32V13.93L0,11.61v-.93H27.78v10h-.93l-3.6-6.79H9.86V45.71L15.08,48V49Z"/><path class="cls-1" d="M31.55,49V48l4.64-2.32V13.93l-4.64-2.32v-.93H46.63q6.84,0,11,2.49t4.15,7.89a8.3,8.3,0,0,1-2.17,5.66,14.86,14.86,0,0,1-5.92,3.92,23.2,23.2,0,0,1-8.44,1.45H41.41V45.71L46.63,48V49Zm9.86-35.09v15h4.93a11.32,11.32,0,0,0,7.19-2.06,6.46,6.46,0,0,0,2.61-5.31q0-4.06-2.64-5.86t-7.57-1.8Z"/><path class="cls-1" d="M65.65,49V48l4.64-2.32V13.93l-4.64-2.32v-.93h14.5v.93l-4.64,2.32V39.74l20.3-23.37V13.93l-4.64-2.32v-.93h14.5v.93L101,13.93V45.71L105.67,48V49H91.17V48l4.64-2.32V20.42L75.51,43.8v1.91L80.15,48V49Z"/><path class="cls-1" d="M127.86,50.4V49.25l5.76-2.88V43.2a39.7,39.7,0,0,1-13.43-2.41,19.48,19.48,0,0,1-8.53-6,14.06,14.06,0,0,1-3-8.86,15.61,15.61,0,0,1,3-9.22A20.7,20.7,0,0,1,120.19,10,34.39,34.39,0,0,1,133.62,7.2V4l-5.76-2.88V0h18V1.15L140.1,4V7.2q12.24.29,18.47,5a14.71,14.71,0,0,1,6.23,12.28A16.15,16.15,0,0,1,162,33.66a19.55,19.55,0,0,1-8.24,6.7A35.27,35.27,0,0,1,140.1,43.2v3.17l5.76,2.88V50.4Zm5.76-39.67q-9,0-13.46,3.64a11.35,11.35,0,0,0-4.46,9.18,14.25,14.25,0,0,0,4.72,11.23q4.72,4.18,13.21,4.75Zm24.19,16q0-7.05-4.39-11.2T140.1,10.8V39.6a26.4,26.4,0,0,0,10.37-1.69,11.72,11.72,0,0,0,5.62-4.57A12.62,12.62,0,0,0,157.81,26.71Z"/><path class="cls-1" d="M142,50.4V49.25l5.76-2.88V43.2a39.72,39.72,0,0,1-13.43-2.41,19.49,19.49,0,0,1-8.53-6,14.06,14.06,0,0,1-3-8.86,15.61,15.61,0,0,1,3-9.22A20.7,20.7,0,0,1,134.35,10,34.4,34.4,0,0,1,147.78,7.2V4L142,1.15V0h18V1.15L154.26,4V7.2q12.24.29,18.47,5A14.71,14.71,0,0,1,179,24.48a16.15,16.15,0,0,1-2.77,9.18,19.55,19.55,0,0,1-8.24,6.7,35.27,35.27,0,0,1-13.68,2.84v3.17L160,49.25V50.4Zm5.76-39.67q-9,0-13.46,3.64a11.35,11.35,0,0,0-4.46,9.18,14.25,14.25,0,0,0,4.72,11.23q4.71,4.18,13.21,4.75Zm24.19,16q0-7.05-4.39-11.2T154.26,10.8V39.6a26.4,26.4,0,0,0,10.37-1.69,11.72,11.72,0,0,0,5.62-4.57A12.62,12.62,0,0,0,172,26.71Z"/><path class="cls-1" d="M3.72,65.67v-.22L4.64,65v-.55a5.78,5.78,0,0,1-3.19-.83,2.37,2.37,0,0,1-1.14-2,2.5,2.5,0,0,1,.51-1.52A3.47,3.47,0,0,1,2.31,59a6.45,6.45,0,0,1,2.33-.46V58l-.92-.46v-.22H6.78v.22l-1,.46v.55a5.74,5.74,0,0,1,3.2.83,2.38,2.38,0,0,1,1.09,2,2.57,2.57,0,0,1-.48,1.51A3.36,3.36,0,0,1,8.2,64a6.34,6.34,0,0,1-2.37.46V65l1,.46v.22Zm.92-6.58a3.65,3.65,0,0,0-2.28.59,1.85,1.85,0,0,0-.76,1.52,2.31,2.31,0,0,0,.8,1.85,3.74,3.74,0,0,0,2.24.78Zm4.19,2.63a2.36,2.36,0,0,0-.75-1.84,3.62,3.62,0,0,0-2.25-.78v4.75a4.53,4.53,0,0,0,1.75-.28,2,2,0,0,0,1-.76A2,2,0,0,0,8.83,61.72Z"/><path class="cls-1" d="M17.74,65.39v-.22l1-.46V58.24l-1-.46v-.22H21v.22l-1,.46v5.25l4.31-4.79v-.46l-1-.46v-.22h3.21v.22l-1,.46v6.47l1,.46v.22H23.2v-.22l1-.46V59.55l-4.31,4.77v.38l1,.46v.22Z"/><path class="cls-1" d="M36.07,65.39v-.22l1.25-.46V58.25H35.16l-.69,1.64h-.22V57.55h7.34v2.34h-.22l-.7-1.64H38.51v6.45l1.26.46v.22Z"/><path class="cls-1" d="M49.43,65.39v-.22l1-.46V58.24l-1-.46v-.22h3.22v.22l-1,.46V61H55.8V58.24l-1-.46v-.22H58v.22l-1,.46v6.47l1,.46v.22H54.76v-.22l1-.46v-3H51.61v3l1,.46v.22Z"/><path class="cls-1" d="M66.09,65.39v-.22l1-.46V58.24l-1-.46v-.22h6v2h-.22l-.67-1.29h-2.9V61h2.11l.42-1H71v2.59H70.8l-.42-.94H68.27v3h3.22l.7-1.51h.22v2.21Z"/><path class="cls-1" d="M84.83,65.53a4.45,4.45,0,0,1-2.14-.5,3.82,3.82,0,0,1-1.48-1.38,3.7,3.7,0,0,1-.54-2A4.14,4.14,0,0,1,81,60a4.23,4.23,0,0,1,1-1.36,4.31,4.31,0,0,1,1.39-.89A4.43,4.43,0,0,1,85,57.4a4.71,4.71,0,0,1,1.44.17,9.46,9.46,0,0,1,1,.41l0,1.95h-.22l-.73-1.33a2.44,2.44,0,0,0-.76-.39A2.88,2.88,0,0,0,85,58.1a3,3,0,0,0-1.62.43,3.09,3.09,0,0,0-1.11,1.18,3.45,3.45,0,0,0-.41,1.67,3.53,3.53,0,0,0,.86,2.55,3.06,3.06,0,0,0,2.3.89,4.16,4.16,0,0,0,.81-.07,2.51,2.51,0,0,0,.67-.24l.94-1.44h.22l-.11,1.85a5.65,5.65,0,0,1-1.16.43A6.27,6.27,0,0,1,84.83,65.53Z"/><path class="cls-1" d="M96,62.28v-1h3.85v1Z"/><path class="cls-1" d="M107.72,65.39v-.22l1-.46V58.24l-1-.46v-.22h3.19v.22l-1,.46v6.47l1,.46v.22Zm6.13,0-3.93-4,3.25-3.22-.87-.39v-.22h2.79v.22l-.81.31-3.12,3,3.68,3.71,1,.38v.22Z"/><path class="cls-1" d="M127.39,65.39v-.22l1-.46V58.25h-2.91v.56a25.56,25.56,0,0,1-.18,3.3,8.45,8.45,0,0,1-.55,2.18,2.06,2.06,0,0,1-.74,1,1.54,1.54,0,0,1-.76.23.6.6,0,0,1-.33-.07.3.3,0,0,1-.1-.27v-.74l.06-.06H123a1.13,1.13,0,0,0,1-.66,5.25,5.25,0,0,0,.5-1.9,27.52,27.52,0,0,0,.14-3v-.57l-1-.45v-.24h6.86v.22l-1,.46v6.47l1,.46v.22Z"/><path class="cls-1" d="M142,64.79a2.35,2.35,0,0,1-.71.59,1.42,1.42,0,0,1-.56.13.55.55,0,0,1-.35-.07.38.38,0,0,1-.07-.27v-.73l.06-.06h.13a1.73,1.73,0,0,0,1-.26,2.29,2.29,0,0,0,.63-.79l-3-5.14-.91-.42v-.22h3.19v.22l-1.09.42v0l2.24,3.88h.21l2-3.92v0l-1-.38v-.22h2.62v.22l-.81.39L143.15,63q-.32.62-.59,1.08A4.73,4.73,0,0,1,142,64.79Z"/><path class="cls-1" d="M157.43,65.39h-3.51v-.22l1-.46V58.24l-1-.46v-.22h6.15v2.34h-.22l-.69-1.62h-3.05v2.51h1.32a4.59,4.59,0,0,1,2.51.6,1.85,1.85,0,0,1,.94,1.62,2,2,0,0,1-.43,1.23,2.79,2.79,0,0,1-1.2.85A4.9,4.9,0,0,1,157.43,65.39Zm-.14-3.92h-1.18v3.22h1.27a2.62,2.62,0,0,0,1.67-.45,1.42,1.42,0,0,0,.55-1.16,1.38,1.38,0,0,0-.56-1.23A3.22,3.22,0,0,0,157.29,61.47Z"/></g></g></svg>