<?xml version="1.0" standalone="no"?>
<!DOCTYPE svg PUBLIC "-//W3C//DTD SVG 20010904//EN"
 "http://www.w3.org/TR/2001/REC-SVG-20010904/DTD/svg10.dtd">
<svg version="1.0" xmlns="http://www.w3.org/2000/svg"
 width="193.000000pt" height="193.000000pt" viewBox="0 0 193.000000 193.000000"
 preserveAspectRatio="xMidYMid meet">
<metadata>
Created by potrace 1.11, written by Peter Selinger 2001-2013
</metadata>
<g transform="translate(0.000000,193.000000) scale(0.100000,-0.100000)"
fill="#000000" stroke="none">
<path d="M530 1643 c0 -12 26 -30 80 -57 l80 -38 0 -43 0 -42 -42 -1 c-77 -2
-220 -32 -294 -62 -96 -38 -147 -72 -215 -140 -189 -189 -173 -490 34 -641 74
-54 199 -108 287 -123 14 -2 41 -7 60 -10 19 -4 64 -8 100 -10 l65 -4 3 -44 3
-44 -81 -39 c-55 -27 -80 -44 -78 -55 3 -13 55 -15 435 -16 507 -1 507 -1 348
79 -71 35 -71 35 -70 76 0 37 3 41 25 42 14 0 32 2 40 3 8 2 41 6 74 10 190
20 382 125 465 254 93 145 97 337 11 473 -88 137 -282 230 -509 245 -47 3 -91
7 -97 9 -12 3 -13 63 -1 82 4 6 39 26 77 44 50 23 70 37 70 50 0 18 -18 19
-435 19 -408 0 -435 -1 -435 -17z m490 -73 c38 -19 40 -23 40 -65 l0 -45 -95
0 -95 0 0 45 c0 42 2 45 43 64 54 25 60 25 107 1z m-390 -215 c0 -2 -14 -11
-30 -20 -48 -25 -144 -129 -173 -188 -52 -107 -62 -218 -28 -325 22 -73 85
-161 141 -198 22 -15 40 -29 40 -31 0 -11 -72 12 -146 48 -156 74 -226 185
-228 359 -1 85 2 101 27 152 50 102 148 169 287 195 13 2 26 5 27 7 5 5 83 6
83 1z m426 -27 c3 -4 6 -170 6 -369 0 -284 -3 -363 -13 -369 -16 -11 -82 -6
-137 9 l-42 12 2 366 3 367 25 6 c27 6 144 -10 156 -22z m359 6 c61 -14 153
-65 195 -108 85 -86 120 -182 115 -315 -5 -164 -97 -270 -271 -315 -51 -13
-154 -27 -154 -21 0 1 19 15 43 30 79 51 147 137 185 235 20 51 24 206 8 261
-28 92 -73 156 -153 221 -23 18 -30 28 -18 25 11 -3 34 -9 50 -13z m-725 -351
l-1 -268 -25 30 c-29 34 -72 120 -81 162 -4 16 -6 62 -6 103 0 60 5 87 25 130
23 49 68 110 83 110 3 0 5 -120 5 -267z m618 149 c44 -83 59 -217 33 -309 -13
-47 -71 -139 -86 -136 -6 2 -10 100 -10 267 0 245 1 264 16 250 9 -8 30 -41
47 -72z m-252 -665 c5 -3 8 -23 6 -45 -4 -36 -8 -41 -51 -61 l-46 -22 -48 26
c-43 24 -47 30 -47 64 0 21 2 40 4 42 7 6 172 3 182 -4z"/>
</g>
</svg>
